<?xml version="1.0" encoding="utf-8"?>
<!-- Generator: Adobe Illustrator 16.0.0, SVG Export Plug-In . SVG Version: 6.00 Build 0)  -->
<!DOCTYPE svg PUBLIC "-//W3C//DTD SVG 1.1//EN" "http://www.w3.org/Graphics/SVG/1.1/DTD/svg11.dtd">
<svg version="1.1" id="Layer_1" xmlns="http://www.w3.org/2000/svg" xmlns:xlink="http://www.w3.org/1999/xlink" x="0px" y="0px"
	 width="140px" height="130px" viewBox="0 0 140 130" enable-background="new 0 0 140 130" xml:space="preserve">
<path fill="#8CC34B" d="M132.423,56.463c0,3.581-2.904,6.484-6.484,6.484c3.58,0,6.484,2.901,6.484,6.481
	c0-3.58,2.9-6.481,6.48-6.481C135.324,62.947,132.423,60.044,132.423,56.463z"/>
<path fill="#8CC34B" d="M41.374,69.506c0,2.23-1.81,4.039-4.04,4.039c2.23,0,4.04,1.809,4.04,4.039c0-2.23,1.806-4.039,4.037-4.039
	C43.18,73.545,41.374,71.737,41.374,69.506z"/>
<path fill="#8CC34B" d="M86.33,0c0,3.361-2.727,6.086-6.086,6.086c3.359,0,6.086,2.723,6.086,6.084c0-3.361,2.723-6.084,6.084-6.084
	C89.052,6.086,86.33,3.361,86.33,0z"/>
<path fill="#8CC34B" d="M48.881,107.53c0,2.387-1.935,4.32-4.32,4.32c2.386,0,4.32,1.934,4.32,4.322c0-2.389,1.934-4.322,4.32-4.322
	C50.814,111.85,48.881,109.917,48.881,107.53z"/>
<linearGradient id="SVGID_1_" gradientUnits="userSpaceOnUse" x1="0.248" y1="68.519" x2="14.1152" y2="68.519">
	<stop  offset="0" style="stop-color:#F79D2A"/>
	<stop  offset="1" style="stop-color:#FFCD2E"/>
</linearGradient>
<path fill="url(#SVGID_1_)" d="M7.183,61.585c0,3.83-3.106,6.935-6.935,6.935c3.828,0,6.935,3.104,6.935,6.934
	c0-3.83,3.104-6.934,6.933-6.934C10.286,68.52,7.183,65.415,7.183,61.585z"/>
<linearGradient id="SVGID_2_" gradientUnits="userSpaceOnUse" x1="94.7378" y1="78.0054" x2="103.6479" y2="78.0054">
	<stop  offset="0" style="stop-color:#F79D2A"/>
	<stop  offset="1" style="stop-color:#FFCD2E"/>
</linearGradient>
<path fill="url(#SVGID_2_)" d="M99.195,73.549c0,2.461-1.996,4.457-4.457,4.457c2.461,0,4.457,1.992,4.457,4.455
	c0-2.463,1.994-4.455,4.453-4.455C101.189,78.006,99.195,76.01,99.195,73.549z"/>
<linearGradient id="SVGID_3_" gradientUnits="userSpaceOnUse" x1="127.4878" y1="111.9966" x2="139.9995" y2="111.9966">
	<stop  offset="0" style="stop-color:#F79D2A"/>
	<stop  offset="1" style="stop-color:#FFCD2E"/>
</linearGradient>
<path fill="url(#SVGID_3_)" d="M133.746,105.741c0,3.455-2.803,6.256-6.258,6.256c3.455,0,6.258,2.801,6.258,6.256
	c0-3.455,2.799-6.256,6.254-6.256C136.544,111.997,133.746,109.196,133.746,105.741z"/>
<linearGradient id="SVGID_4_" gradientUnits="userSpaceOnUse" x1="104.4819" y1="19.3169" x2="112.2417" y2="19.3169">
	<stop  offset="0" style="stop-color:#F79D2A"/>
	<stop  offset="1" style="stop-color:#FFCD2E"/>
</linearGradient>
<path fill="url(#SVGID_4_)" d="M108.361,15.438c0,2.144-1.736,3.879-3.879,3.879c2.143,0,3.879,1.736,3.879,3.88
	c0-2.144,1.736-3.88,3.881-3.88C110.097,19.316,108.361,17.581,108.361,15.438z"/>
<linearGradient id="SVGID_5_" gradientUnits="userSpaceOnUse" x1="13.3145" y1="110.5825" x2="21.3496" y2="110.5825">
	<stop  offset="0" style="stop-color:#F79D2A"/>
	<stop  offset="1" style="stop-color:#FFCD2E"/>
</linearGradient>
<path fill="url(#SVGID_5_)" d="M17.332,106.565c0,2.219-1.8,4.018-4.018,4.018c2.218,0,4.018,1.797,4.018,4.018
	c0-2.221,1.798-4.018,4.018-4.018C19.13,110.583,17.332,108.784,17.332,106.565z"/>
<linearGradient id="SVGID_6_" gradientUnits="userSpaceOnUse" x1="64.6445" y1="125.6792" x2="73.2866" y2="125.6792">
	<stop  offset="0" style="stop-color:#F79D2A"/>
	<stop  offset="1" style="stop-color:#FFCD2E"/>
</linearGradient>
<path fill="url(#SVGID_6_)" d="M68.966,121.358c0,2.387-1.936,4.32-4.321,4.32c2.386,0,4.321,1.934,4.321,4.322
	c0-2.389,1.934-4.322,4.321-4.322C70.9,125.678,68.966,123.745,68.966,121.358z"/>
<linearGradient id="SVGID_7_" gradientUnits="userSpaceOnUse" x1="0" y1="16.127" x2="7.9824" y2="16.127">
	<stop  offset="0" style="stop-color:#F79D2A"/>
	<stop  offset="1" style="stop-color:#FFCD2E"/>
</linearGradient>
<path fill="url(#SVGID_7_)" d="M3.992,12.136c0,2.205-1.788,3.991-3.992,3.991c2.204,0,3.992,1.787,3.992,3.991
	c0-2.204,1.785-3.991,3.99-3.991C5.777,16.127,3.992,14.341,3.992,12.136z"/>
<g>
	<linearGradient id="SVGID_8_" gradientUnits="userSpaceOnUse" x1="60.3018" y1="89.1001" x2="77.0874" y2="89.1001">
		<stop  offset="0" style="stop-color:#76767D"/>
		<stop  offset="1" style="stop-color:#A4A8A8"/>
	</linearGradient>
	<path fill="url(#SVGID_8_)" stroke="#444444" stroke-width="2" stroke-miterlimit="10" d="M75.628,85.178H61.76
		c-0.806,0-1.458,1.482-1.458,2.289c0,0.805,0.652,2.287,1.458,2.287h4.647l-5.091,0.949c-0.764,0.248-1.185,0.719-0.938,1.484
		c0.2,0.617,0.772,0.834,1.39,0.834c0.147,0,0.299-0.113,0.449-0.158l13.862-4.541c0.682-0.221,1.102-1.057,0.99-1.766
		C76.955,85.85,76.345,85.178,75.628,85.178z"/>
	<linearGradient id="SVGID_9_" gradientUnits="userSpaceOnUse" x1="60.3008" y1="95.5298" x2="77.0698" y2="95.5298">
		<stop  offset="0" style="stop-color:#76767D"/>
		<stop  offset="1" style="stop-color:#A4A8A8"/>
	</linearGradient>
	<path fill="url(#SVGID_9_)" stroke="#444444" stroke-width="2" stroke-miterlimit="10" d="M75.611,95.477h-4.635l5.086-2.299
		c0.766-0.246,1.186-1.393,0.936-2.16c-0.25-0.766-1.068-1.348-1.838-1.1l-13.851,4.414c-0.683,0.225-1.102,1.203-0.99,1.912
		c0.111,0.707,0.724,1.521,1.441,1.521h1.259l2.204,3.434h6.873l2.238-3.434h1.277c0.807,0,1.457-0.34,1.457-1.145
		C77.068,95.815,76.417,95.477,75.611,95.477z"/>
	<linearGradient id="SVGID_10_" gradientUnits="userSpaceOnUse" x1="49.0156" y1="60.0776" x2="88.3862" y2="60.0776">
		<stop  offset="0" style="stop-color:#F79D2A"/>
		<stop  offset="1" style="stop-color:#FFCD2E"/>
	</linearGradient>
	<path fill="url(#SVGID_10_)" stroke="#515151" stroke-width="2" stroke-miterlimit="10" d="M68.696,36.465
		c-10.862,0.013-19.681,8.819-19.681,19.685c0,5.222,2.656,9.73,5.348,13.771c5.945,8.932,2.567,13.77,5.999,13.77h8.323h8.367
		c3.436,0,0.049-4.838,5.994-13.77c2.691-4.041,5.34-8.409,5.34-13.627C88.388,45.425,79.56,36.478,68.696,36.465z"/>
	<path fill="#FFFFFF" d="M77.695,62.196c-0.041,0.105-4.25,10.583-3.914,19.937c0.02,0.574-0.305,1.061-0.721,1.088
		c-0.016,0.004-0.027,0.004-0.041,0.004c-0.4,0-0.738-0.434-0.756-0.99c-0.281-7.852,2.324-16.135,3.523-19.506h-2.754
		c-0.361,0-0.67-0.352-0.74-0.826l-1.053,3.182c-0.146,0.435-0.492,0.682-0.831,0.593c-0.342-0.084-0.598-0.477-0.619-0.956
		l-0.086-1.834l-0.739,2.561c-0.136,0.463-0.487,0.739-0.851,0.637c-0.356-0.094-0.614-0.522-0.614-1.022v-1.937l-0.686,2.129
		c-0.145,0.443-0.497,0.699-0.84,0.601c-0.346-0.09-0.601-0.501-0.612-0.984l-0.081-3.23l-0.314,0.633
		c-0.142,0.283-0.378,0.458-0.63,0.458H61.69c2.894,7.278,3.35,18.875,3.368,19.401c0.021,0.576-0.303,1.063-0.72,1.092
		c-0.415,0.063-0.776-0.41-0.796-0.986c-0.006-0.131-0.528-13.426-3.829-19.951c-0.163-0.321-0.182-0.734-0.049-1.077
		c0.132-0.343,0.388-0.556,0.672-0.556h3.598l1.392-2.822c0.184-0.372,0.522-0.54,0.838-0.416c0.316,0.125,0.536,0.512,0.549,0.962
		l0.049,1.886l0.804-2.494c0.145-0.447,0.498-0.695,0.851-0.602c0.353,0.104,0.602,0.529,0.602,1.021v1.435l0.526-1.815
		c0.133-0.451,0.479-0.718,0.825-0.645c0.35,0.078,0.619,0.476,0.638,0.964l0.105,2.304l0.883-2.67
		c0.141-0.422,0.471-0.66,0.805-0.598c0.334,0.068,0.596,0.431,0.639,0.891l0.262,2.603h3.338c0.268,0,0.516,0.197,0.652,0.515
		C77.826,61.481,77.828,61.872,77.695,62.196z"/>
	<path opacity="0.3" fill="none" stroke="#FFFFFF" stroke-width="3" stroke-linecap="round" stroke-miterlimit="10" d="
		M71.291,41.375c-9.589,0-17.365,7.848-17.365,17.528"/>
</g>
<g opacity="0.7">
	
		<linearGradient id="SVGID_11_" gradientUnits="userSpaceOnUse" x1="62.6475" y1="152.0425" x2="71.4087" y2="152.0425" gradientTransform="matrix(0.8645 0.5026 -0.5026 0.8645 127.444 -107.8815)">
		<stop  offset="0" style="stop-color:#76767D"/>
		<stop  offset="1" style="stop-color:#A4A8A8"/>
	</linearGradient>
	<path fill="url(#SVGID_11_)" stroke="#444444" stroke-miterlimit="10" d="M113.13,57.296l-6.256-3.638
		c-0.365-0.213-1.049,0.286-1.26,0.649c-0.211,0.364-0.307,1.203,0.059,1.415l2.096,1.22l-2.547-0.908
		c-0.408-0.088-0.723,0.014-0.811,0.425c-0.072,0.33,0.129,0.578,0.406,0.74c0.068,0.039,0.166,0.027,0.244,0.046l7.447,1.588
		c0.367,0.079,0.773-0.188,0.91-0.536C113.554,57.947,113.455,57.483,113.13,57.296z"/>
	
		<linearGradient id="SVGID_12_" gradientUnits="userSpaceOnUse" x1="62.646" y1="155.3989" x2="71.3999" y2="155.3989" gradientTransform="matrix(0.8645 0.5026 -0.5026 0.8645 127.444 -107.8815)">
		<stop  offset="0" style="stop-color:#76767D"/>
		<stop  offset="1" style="stop-color:#A4A8A8"/>
	</linearGradient>
	<path fill="url(#SVGID_12_)" stroke="#444444" stroke-miterlimit="10" d="M110.421,61.938l-2.09-1.215l2.896,0.297
		c0.41,0.089,0.9-0.317,0.99-0.729c0.086-0.411-0.131-0.89-0.541-0.979l-7.41-1.642c-0.365-0.078-0.813,0.253-0.947,0.602
		s-0.072,0.878,0.252,1.065l0.566,0.33l0.094,2.127l3.102,1.804l1.91-0.962l0.576,0.334c0.365,0.212,0.748,0.229,0.959-0.135
		C110.99,62.474,110.785,62.149,110.421,61.938z"/>
	
		<linearGradient id="SVGID_13_" gradientUnits="userSpaceOnUse" x1="56.7549" y1="136.8931" x2="77.3062" y2="136.8931" gradientTransform="matrix(0.8645 0.5026 -0.5026 0.8645 127.444 -107.8815)">
		<stop  offset="0" style="stop-color:#F79D2A"/>
		<stop  offset="1" style="stop-color:#FFCD2E"/>
	</linearGradient>
	<path fill="url(#SVGID_13_)" stroke="#515151" stroke-width="2" stroke-miterlimit="10" d="M122.781,33.496
		c-4.904-2.844-11.193-1.183-14.043,3.719c-1.369,2.356-1.354,5.089-1.199,7.618c0.34,5.589-2.455,6.886-0.904,7.787l3.756,2.184
		l3.773,2.193c1.551,0.901,1.291-2.171,6.316-4.64c2.275-1.117,4.617-2.393,5.986-4.749
		C129.318,42.705,127.681,36.352,122.781,33.496z"/>
	<path fill="#FFFFFF" d="M120.093,47.468c-0.047,0.036-4.693,3.661-6.998,7.97c-0.141,0.265-0.416,0.397-0.611,0.302
		c-0.008-0.002-0.012-0.005-0.018-0.009c-0.182-0.105-0.219-0.391-0.082-0.646c1.934-3.616,5.281-6.671,6.707-7.877l-1.242-0.723
		c-0.162-0.095-0.211-0.335-0.117-0.566l-1.311,1.158c-0.18,0.158-0.4,0.179-0.529,0.051c-0.133-0.129-0.145-0.373-0.029-0.596
		l0.443-0.849l-1.006,0.962c-0.184,0.174-0.414,0.205-0.551,0.063c-0.137-0.136-0.141-0.396-0.01-0.621l0.508-0.874l-0.867,0.781
		c-0.182,0.161-0.408,0.184-0.535,0.051c-0.133-0.132-0.141-0.384-0.02-0.604l0.813-1.479l-0.311,0.203
		c-0.137,0.091-0.291,0.108-0.404,0.042l-1.193-0.694c-0.604,4.043-3.439,9.396-3.57,9.638c-0.143,0.266-0.414,0.399-0.611,0.304
		c-0.203-0.081-0.242-0.39-0.1-0.653c0.031-0.061,3.283-6.197,3.506-10.008c0.012-0.188,0.111-0.378,0.26-0.498
		c0.15-0.12,0.322-0.149,0.449-0.075l1.623,0.944l1.369-0.909c0.18-0.119,0.377-0.107,0.486,0.032
		c0.109,0.139,0.109,0.372-0.004,0.578l-0.473,0.864l1.018-0.915c0.182-0.164,0.408-0.184,0.543-0.049
		c0.131,0.14,0.131,0.397,0.002,0.618l-0.377,0.647l0.713-0.682c0.18-0.168,0.406-0.197,0.543-0.073
		c0.137,0.127,0.154,0.376,0.035,0.602l-0.557,1.066l1.098-0.973c0.176-0.152,0.387-0.174,0.521-0.058
		c0.133,0.118,0.156,0.352,0.053,0.569l-0.564,1.243l1.508,0.875c0.119,0.07,0.18,0.225,0.158,0.404
		C120.339,47.179,120.238,47.355,120.093,47.468z"/>
	<path opacity="0.3" fill="none" stroke="#FFFFFF" stroke-width="3" stroke-linecap="round" stroke-miterlimit="10" d="
		M122.666,36.393c-4.328-2.516-9.895-1.015-12.436,3.354"/>
</g>
<g opacity="0.7">
	
		<linearGradient id="SVGID_14_" gradientUnits="userSpaceOnUse" x1="299.2515" y1="64.7349" x2="305.4604" y2="64.7349" gradientTransform="matrix(0.2805 -0.9598 0.9598 0.2805 -112.4078 367.4668)">
		<stop  offset="0" style="stop-color:#76767D"/>
		<stop  offset="1" style="stop-color:#A4A8A8"/>
	</linearGradient>
	<path fill="url(#SVGID_14_)" stroke="#444444" stroke-miterlimit="10" d="M33.862,92.555l-1.439,4.924
		c-0.084,0.287,0.376,0.672,0.661,0.754c0.287,0.086,0.88,0.008,0.964-0.279l0.483-1.65l-0.192,1.908
		c0.009,0.297,0.132,0.494,0.43,0.484c0.24-0.006,0.376-0.188,0.441-0.404c0.015-0.055-0.011-0.119-0.011-0.176l-0.174-5.395
		c-0.007-0.266-0.26-0.502-0.524-0.535C34.238,92.153,33.937,92.301,33.862,92.555z"/>
	
		<linearGradient id="SVGID_15_" gradientUnits="userSpaceOnUse" x1="299.2495" y1="67.1138" x2="305.4536" y2="67.1138" gradientTransform="matrix(0.2805 -0.9598 0.9598 0.2805 -112.4078 367.4668)">
		<stop  offset="0" style="stop-color:#76767D"/>
		<stop  offset="1" style="stop-color:#A4A8A8"/>
	</linearGradient>
	<path fill="url(#SVGID_15_)" stroke="#444444" stroke-miterlimit="10" d="M37.516,93.629l-0.479,1.646l-0.289-2.043
		c-0.008-0.299-0.372-0.566-0.668-0.559c-0.3,0.01-0.591,0.24-0.581,0.539l0.13,5.377c0.007,0.264,0.312,0.516,0.574,0.549
		c0.264,0.033,0.615-0.1,0.69-0.354l0.131-0.447l1.447-0.426l0.715-2.441l-0.988-1.15l0.132-0.453
		c0.084-0.285,0.031-0.553-0.254-0.637C37.788,93.147,37.601,93.344,37.516,93.629z"/>
	
		<linearGradient id="SVGID_16_" gradientUnits="userSpaceOnUse" x1="295.0767" y1="53.9985" x2="309.6401" y2="53.9985" gradientTransform="matrix(0.2805 -0.9598 0.9598 0.2805 -112.4078 367.4668)">
		<stop  offset="0" style="stop-color:#F79D2A"/>
		<stop  offset="1" style="stop-color:#FFCD2E"/>
	</linearGradient>
	<path fill="url(#SVGID_16_)" stroke="#515151" stroke-width="2" stroke-miterlimit="10" d="M15.847,89.963
		c-1.122,3.857,1.09,7.902,4.947,9.027c1.854,0.543,3.73,0.066,5.444-0.469c3.787-1.184,5.155,0.52,5.511-0.701l0.864-2.955
		l0.868-2.969c0.357-1.221-1.714-0.521-4.266-3.559c-1.156-1.375-2.433-2.77-4.285-3.311C21.072,83.899,16.979,86.106,15.847,89.963
		z"/>
	<path fill="#FFFFFF" d="M25.917,89.438c0.032,0.025,3.317,2.605,6.673,3.459c0.206,0.051,0.345,0.217,0.313,0.367
		c-0.001,0.008-0.002,0.012-0.004,0.016c-0.042,0.143-0.23,0.215-0.431,0.164c-2.815-0.715-5.487-2.5-6.56-3.273l-0.285,0.977
		c-0.038,0.129-0.195,0.203-0.37,0.178l1.02,0.703c0.14,0.098,0.191,0.246,0.125,0.357c-0.067,0.113-0.232,0.164-0.404,0.119
		l-0.659-0.158l0.833,0.527c0.149,0.096,0.211,0.25,0.137,0.369c-0.071,0.117-0.25,0.164-0.426,0.111l-0.688-0.201l0.686,0.467
		c0.142,0.094,0.194,0.246,0.126,0.357c-0.068,0.113-0.24,0.162-0.413,0.115l-1.156-0.305l0.193,0.178
		c0.086,0.078,0.124,0.182,0.097,0.27l-0.274,0.939c2.884-0.271,7.049,0.77,7.237,0.818c0.206,0.053,0.347,0.217,0.313,0.369
		c-0.022,0.152-0.228,0.232-0.434,0.178c-0.046-0.01-4.821-1.203-7.481-0.709c-0.129,0.023-0.278-0.012-0.387-0.094
		c-0.107-0.082-0.156-0.197-0.127-0.297l0.372-1.277l-0.856-0.787c-0.113-0.104-0.139-0.24-0.062-0.34
		c0.077-0.098,0.238-0.137,0.398-0.096l0.676,0.178l-0.803-0.545c-0.145-0.096-0.195-0.248-0.125-0.363
		c0.073-0.113,0.249-0.16,0.423-0.107l0.511,0.148l-0.59-0.373c-0.146-0.096-0.205-0.246-0.143-0.361
		c0.063-0.117,0.231-0.17,0.408-0.127l0.828,0.201L23.751,91c-0.134-0.094-0.186-0.234-0.127-0.348
		c0.058-0.111,0.214-0.168,0.382-0.133l0.95,0.176l0.347-1.186c0.026-0.094,0.123-0.164,0.251-0.178
		C25.677,89.317,25.816,89.356,25.917,89.438z"/>
	<path opacity="0.3" fill="none" stroke="#FFFFFF" stroke-width="3" stroke-linecap="round" stroke-miterlimit="10" d="
		M17.86,89.549c-0.996,3.404,0.984,6.98,4.421,7.986"/>
</g>
<linearGradient id="SVGID_17_" gradientUnits="userSpaceOnUse" x1="41.4404" y1="291.7319" x2="53.1104" y2="291.7319" gradientTransform="matrix(0 1 -1 0 360.4336 -23.375)">
	<stop  offset="0" style="stop-color:#F79D2A"/>
	<stop  offset="1" style="stop-color:#FFCD2E"/>
</linearGradient>
<path opacity="0.5" fill="url(#SVGID_17_)" d="M68.701,29.735c-0.706,0-1.279-0.573-1.279-1.28v-9.109
	c0-0.708,0.573-1.28,1.279-1.28l0,0c0.708,0,1.28,0.572,1.28,1.28v9.109C69.981,29.162,69.409,29.735,68.701,29.735L68.701,29.735z"
	/>
<linearGradient id="SVGID_18_" gradientUnits="userSpaceOnUse" x1="37.7012" y1="258.4468" x2="49.3701" y2="258.4468" gradientTransform="matrix(-0.5721 0.8202 -0.8202 -0.5721 321.5862 142.5251)">
	<stop  offset="0" style="stop-color:#F79D2A"/>
	<stop  offset="1" style="stop-color:#FFCD2E"/>
</linearGradient>
<path opacity="0.5" fill="url(#SVGID_18_)" d="M81.361,35.16c-0.58-0.404-0.721-1.203-0.316-1.782l5.211-7.472
	c0.404-0.58,1.203-0.723,1.781-0.317l0,0c0.58,0.404,0.723,1.202,0.316,1.781l-5.209,7.473
	C82.738,35.421,81.941,35.564,81.361,35.16L81.361,35.16z"/>
<linearGradient id="SVGID_19_" gradientUnits="userSpaceOnUse" x1="22.7539" y1="237.5298" x2="34.4224" y2="237.5298" gradientTransform="matrix(-0.8856 0.4645 -0.4645 -0.8856 230.3558 237.6262)">
	<stop  offset="0" style="stop-color:#F79D2A"/>
	<stop  offset="1" style="stop-color:#FFCD2E"/>
</linearGradient>
<path opacity="0.5" fill="url(#SVGID_19_)" d="M89.539,43.259c-0.33-0.626-0.088-1.399,0.537-1.729l8.068-4.23
	c0.627-0.329,1.402-0.087,1.729,0.539l0,0c0.328,0.625,0.088,1.399-0.541,1.727l-8.064,4.233
	C90.64,44.126,89.867,43.885,89.539,43.259L89.539,43.259z"/>
<linearGradient id="SVGID_20_" gradientUnits="userSpaceOnUse" x1="48.2012" y1="273.5034" x2="59.8711" y2="273.5034" gradientTransform="matrix(0.5721 0.8202 0.8202 -0.5721 -202.8264 142.5251)">
	<stop  offset="0" style="stop-color:#F79D2A"/>
	<stop  offset="1" style="stop-color:#FFCD2E"/>
</linearGradient>
<path opacity="0.5" fill="url(#SVGID_20_)" d="M55.755,35.16c0.58-0.404,0.722-1.203,0.318-1.782l-5.212-7.472
	c-0.404-0.58-1.203-0.723-1.783-0.317l0,0c-0.579,0.404-0.722,1.202-0.316,1.781l5.211,7.473
	C54.378,35.421,55.176,35.564,55.755,35.16L55.755,35.16z"/>
<linearGradient id="SVGID_21_" gradientUnits="userSpaceOnUse" x1="38.9634" y1="246.0317" x2="50.6313" y2="246.0317" gradientTransform="matrix(0.8856 0.4645 0.4645 -0.8856 -111.596 237.6262)">
	<stop  offset="0" style="stop-color:#F79D2A"/>
	<stop  offset="1" style="stop-color:#FFCD2E"/>
</linearGradient>
<path opacity="0.5" fill="url(#SVGID_21_)" d="M47.525,43.259c0.329-0.626,0.087-1.399-0.538-1.729L38.92,37.3
	c-0.627-0.329-1.402-0.087-1.729,0.539l0,0c-0.329,0.625-0.088,1.399,0.539,1.727l8.066,4.233
	C46.424,44.126,47.197,43.885,47.525,43.259L47.525,43.259z"/>
<path fill="#E8E8E8" stroke="#444444" stroke-miterlimit="10" d="M117.433,115.153"/>
<g>
	<path fill="#E8E8E8" stroke="#444444" stroke-width="2" stroke-miterlimit="10" d="M84.835,118.928l11.346-26.977
		c0,0,20.242,5.607,28.803-5.539c0.432-0.561-0.586,3.34-0.586,3.34l-9.191,24.885c0,0-3.582,13.047-30.221,3.936"/>
	
		<linearGradient id="SVGID_22_" gradientUnits="userSpaceOnUse" x1="63.1226" y1="209.6567" x2="84.2339" y2="209.6567" gradientTransform="matrix(0.9364 0.351 -0.351 0.9364 110.7625 -119.6103)">
		<stop  offset="0" style="stop-color:#F79D2A"/>
		<stop  offset="1" style="stop-color:#FFCD2E"/>
	</linearGradient>
	<path fill="none" stroke="url(#SVGID_22_)" stroke-width="3" stroke-linecap="round" stroke-miterlimit="10" d="M115.812,102.635
		c0,0-6.506,3.209-19.295-0.125"/>
	
		<linearGradient id="SVGID_23_" gradientUnits="userSpaceOnUse" x1="70.8315" y1="201.0991" x2="90.728" y2="201.0991" gradientTransform="matrix(0.9574 0.2888 -0.2888 0.9574 87.5032 -109.4051)">
		<stop  offset="0" style="stop-color:#56AF5E"/>
		<stop  offset="1" style="stop-color:#C1D24D"/>
	</linearGradient>
	<path fill="none" stroke="url(#SVGID_23_)" stroke-width="3" stroke-linecap="round" stroke-miterlimit="10" d="M115.783,105.813
		c0,0-5.055,3.775-18.037,1.289"/>
	
		<linearGradient id="SVGID_24_" gradientUnits="userSpaceOnUse" x1="70.8657" y1="205.3687" x2="90.5278" y2="205.3687" gradientTransform="matrix(0.9574 0.2888 -0.2888 0.9574 87.5032 -109.4051)">
		<stop  offset="0" style="stop-color:#56AF5E"/>
		<stop  offset="1" style="stop-color:#C1D24D"/>
	</linearGradient>
	<path fill="none" stroke="url(#SVGID_24_)" stroke-width="3" stroke-linecap="round" stroke-miterlimit="10" d="M114.32,109.969
		c0,0-3.816,3.674-17.736,1.104"/>
	
		<linearGradient id="SVGID_25_" gradientUnits="userSpaceOnUse" x1="60.7866" y1="229.6099" x2="84.0229" y2="229.6099" gradientTransform="matrix(0.9223 0.3864 -0.3864 0.9223 124.5775 -125.6583)">
		<stop  offset="0" style="stop-color:#F79D2A"/>
		<stop  offset="1" style="stop-color:#FFCD2E"/>
	</linearGradient>
	<path fill="none" stroke="url(#SVGID_25_)" stroke-width="3" stroke-linecap="round" stroke-miterlimit="10" d="M113.482,114.379
		c0,0-6.711,3.512-21.695-0.582"/>
	<path fill="#E8E8E8" stroke="#444444" stroke-miterlimit="10" d="M91.687,102.577"/>
	<path fill="#434347" d="M94.13,96.182l2.051-4.23c0,0,20.242,5.607,28.803-5.539c0.432-0.561-0.586,3.34-0.586,3.34
		s-1.352,14.199-29.938,6.764"/>
	
		<linearGradient id="SVGID_26_" gradientUnits="userSpaceOnUse" x1="223.8804" y1="64.3989" x2="261.6753" y2="64.3989" gradientTransform="matrix(0.7073 -0.707 0.707 0.7073 -98.3342 222.8015)">
		<stop  offset="0.1237" style="stop-color:#9CA5AA"/>
		<stop  offset="1" style="stop-color:#CFD7DB"/>
	</linearGradient>
	<path fill="url(#SVGID_26_)" stroke="#565656" stroke-width="2" stroke-miterlimit="10" d="M127.488,83.116
		c-0.082-5.096-2.975-7.527-2.975-7.527s-13.365,31.719-13.26,31.832c4.549,5.063,2.053,10.41,2.053,10.41L127.488,83.116z"/>
	
		<ellipse transform="matrix(0.9054 0.4245 -0.4245 0.9054 49.3336 -32.5117)" fill="#EC4643" cx="97.641" cy="94.476" rx="0.95" ry="1.038"/>
	<path fill="#FFCD2E" d="M101.046,95.288c-0.201,0.535-0.762,0.818-1.252,0.635c-0.494-0.182-0.729-0.766-0.529-1.301
		c0.201-0.537,0.764-0.824,1.254-0.637C101.009,94.167,101.248,94.752,101.046,95.288z"/>
	
		<ellipse transform="matrix(0.9459 0.3245 -0.3245 0.9459 36.5275 -28.1431)" fill="#C2E046" cx="102.635" cy="95.436" rx="0.951" ry="1.037"/>
</g>
<g>
	<path fill="#E8E8E8" stroke="#444444" stroke-width="2" stroke-miterlimit="10" d="M42.474,1.138l-0.858,29.055
		c0,0-20.762,2.049-24.704,15.439c-0.201,0.676-0.653-3.301-0.653-3.301l-0.391-26.349c0,0-1.349-13.368,26.594-14.461"/>
	
		<linearGradient id="SVGID_27_" gradientUnits="userSpaceOnUse" x1="239.2144" y1="372.3208" x2="258.4429" y2="372.3208" gradientTransform="matrix(-0.9882 0.1531 -0.1531 -0.9882 332.3948 359.209)">
		<stop  offset="0" style="stop-color:#F79D2A"/>
		<stop  offset="1" style="stop-color:#FFCD2E"/>
	</linearGradient>
	<path fill="none" stroke="url(#SVGID_27_)" stroke-width="3" stroke-linecap="round" stroke-miterlimit="10" d="M21.866,33.104
		c0,0,2.572-4.111,15.268-7.45"/>
	<linearGradient id="SVGID_28_" gradientUnits="userSpaceOnUse" x1="19.6025" y1="24.9971" x2="36.2207" y2="24.9971">
		<stop  offset="0" style="stop-color:#56AF5E"/>
		<stop  offset="1" style="stop-color:#C1D24D"/>
	</linearGradient>
	<path fill="none" stroke="url(#SVGID_28_)" stroke-width="3" stroke-linecap="round" stroke-miterlimit="10" d="M21.103,28.996
		c0,0,1.17-3.828,13.618-7.998"/>
	<linearGradient id="SVGID_29_" gradientUnits="userSpaceOnUse" x1="18.8447" y1="20.5898" x2="36.4756" y2="20.5898">
		<stop  offset="0" style="stop-color:#56AF5E"/>
		<stop  offset="1" style="stop-color:#C1D24D"/>
	</linearGradient>
	<path fill="none" stroke="url(#SVGID_29_)" stroke-width="3" stroke-linecap="round" stroke-miterlimit="10" d="M20.345,24.54
		c0,0,6.055-6.603,14.631-7.9"/>
	
		<linearGradient id="SVGID_30_" gradientUnits="userSpaceOnUse" x1="241.1011" y1="386.3345" x2="263.4312" y2="386.3345" gradientTransform="matrix(-0.9933 0.1153 -0.1153 -0.9933 323.2754 370.6761)">
		<stop  offset="0" style="stop-color:#F79D2A"/>
		<stop  offset="1" style="stop-color:#FFCD2E"/>
	</linearGradient>
	<path fill="none" stroke="url(#SVGID_30_)" stroke-width="3" stroke-linecap="round" stroke-miterlimit="10" d="M18.925,20.316
		c0,0,8.095-7.738,18.463-8.587"/>
	<path fill="#E8E8E8" stroke="#444444" stroke-miterlimit="10" d="M41.976,18.741"/>
	<path fill="#434347" d="M42.001,1.326l-0.34,6.468c0,0-20.808,0.234-24.75,13.626c-0.201,0.675-0.653-3.303-0.653-3.303
		S12.428,4.477,41.576,1.138"/>
	
		<linearGradient id="SVGID_31_" gradientUnits="userSpaceOnUse" x1="172.5522" y1="304.1079" x2="207.5464" y2="304.1079" gradientTransform="matrix(-0.405 0.9143 -0.9143 -0.405 373.6196 -15.3906)">
		<stop  offset="0.1237" style="stop-color:#9CA5AA"/>
		<stop  offset="1" style="stop-color:#CFD7DB"/>
	</linearGradient>
	<path fill="url(#SVGID_31_)" stroke="#565656" stroke-width="2" stroke-miterlimit="10" d="M15.771,49.586
		c1.898,4.69,5.447,5.908,5.447,5.908s1.033-34.173,0.896-34.241c-6.026-3.061-6.122-6.339-6.122-6.339L15.771,49.586z"/>
</g>
</svg>
