<?xml version="1.0" encoding="utf-8"?>
<!-- Generator: Adobe Illustrator 16.0.0, SVG Export Plug-In . SVG Version: 6.00 Build 0)  -->
<!DOCTYPE svg PUBLIC "-//W3C//DTD SVG 1.1//EN" "http://www.w3.org/Graphics/SVG/1.1/DTD/svg11.dtd">
<svg version="1.1" id="Layer_1" xmlns="http://www.w3.org/2000/svg" xmlns:xlink="http://www.w3.org/1999/xlink" x="0px" y="0px"
	 width="40px" height="40px" viewBox="0 0 30 29.263" enable-background="new 0 0 30 29.263" xml:space="preserve">
<g>
	<path fill="#2B2B2B" d="M19.746,29.238c-0.762,0.137-1.016-0.332-1.016-0.723c0-0.488,0-2.109,0-4.121
		c0-1.406-0.469-2.305-1.016-2.773c3.34-0.371,6.855-1.641,6.855-7.402c0-1.641-0.586-2.988-1.543-4.023
		c0.156-0.391,0.664-1.914-0.156-3.984c-1.25-0.391-4.121,1.543-4.121,1.543C17.559,7.422,16.27,7.246,15,7.246
		s-2.559,0.176-3.75,0.508c0,0-2.871-1.934-4.141-1.543c-0.801,2.07-0.293,3.594-0.137,3.984C6.016,11.23,5.43,12.578,5.43,14.219
		c0,5.742,3.496,7.031,6.836,7.402c-0.43,0.391-0.82,1.035-0.957,2.012c-0.859,0.391-3.047,1.055-4.355-1.25
		c-0.82-1.426-2.305-1.543-2.305-1.543c-1.465-0.02-0.098,0.918-0.098,0.918c0.977,0.449,1.66,2.188,1.66,2.188
		c0.879,2.676,5.059,1.777,5.059,1.777c0,1.25,0.02,2.441,0.02,2.793c0,0.391-0.273,0.859-1.035,0.723C4.297,27.246,0,21.621,0,15
		C0,6.719,6.719,0,15,0s15,6.719,15,15C30,21.621,25.703,27.246,19.746,29.238z"/>
</g>
</svg>
