<?xml version="1.0" encoding="utf-8"?>
<!-- Generator: Adobe Illustrator 16.0.0, SVG Export Plug-In . SVG Version: 6.00 Build 0)  -->
<!DOCTYPE svg PUBLIC "-//W3C//DTD SVG 1.1//EN" "http://www.w3.org/Graphics/SVG/1.1/DTD/svg11.dtd">
<svg version="1.1" id="Layer_1" xmlns="http://www.w3.org/2000/svg" xmlns:xlink="http://www.w3.org/1999/xlink" x="0px" y="0px"
	 width="140px" height="138.526px" viewBox="0 0 140 138.526" enable-background="new 0 0 140 138.526" xml:space="preserve">
<path fill="#8CC34B" d="M83.081,0c0,3.513-2.85,6.36-6.361,6.36c3.512,0,6.361,2.846,6.361,6.358c0-3.513,2.846-6.358,6.357-6.358
	C85.926,6.36,83.081,3.513,83.081,0z"/>
<path fill="#8CC34B" d="M9.117,95.573c0,3.514-2.849,6.359-6.36,6.359c3.512,0,6.36,2.846,6.36,6.359
	c0-3.514,2.846-6.359,6.357-6.359C11.963,101.932,9.117,99.086,9.117,95.573z"/>
<path fill="#8CC34B" d="M31.432,33.578c0,2.494-2.021,4.515-4.515,4.515c2.493,0,4.515,2.021,4.515,4.517
	c0-2.495,2.021-4.517,4.515-4.517C33.453,38.093,31.432,36.072,31.432,33.578z"/>
<path fill="#8CC34B" d="M66.806,116.893c0,2.494-2.021,4.514-4.515,4.514c2.493,0,4.515,2.021,4.515,4.518
	c0-2.496,2.021-4.518,4.515-4.518C68.827,121.407,66.806,119.387,66.806,116.893z"/>
<path fill="#8CC34B" d="M135.485,104.258c0,2.494-2.021,4.514-4.514,4.514c2.492,0,4.514,2.021,4.514,4.518
	c0-2.496,2.021-4.518,4.516-4.518C137.506,108.772,135.485,106.752,135.485,104.258z"/>
<linearGradient id="SVGID_1_" gradientUnits="userSpaceOnUse" x1="120.9927" y1="66.7241" x2="135.4849" y2="66.7241">
	<stop  offset="0" style="stop-color:#F79D2A"/>
	<stop  offset="1" style="stop-color:#FFCD2E"/>
</linearGradient>
<path fill="url(#SVGID_1_)" d="M128.241,59.478c0,4.002-3.248,7.248-7.248,7.248c4,0,7.248,3.244,7.248,7.246
	c0-4.002,3.242-7.246,7.244-7.246C131.483,66.726,128.241,63.479,128.241,59.478z"/>
<linearGradient id="SVGID_2_" gradientUnits="userSpaceOnUse" x1="35.9463" y1="6.3594" x2="44.0557" y2="6.3594">
	<stop  offset="0" style="stop-color:#F79D2A"/>
	<stop  offset="1" style="stop-color:#FFCD2E"/>
</linearGradient>
<path fill="url(#SVGID_2_)" d="M40,2.305c0,2.24-1.815,4.054-4.054,4.054c2.238,0,4.054,1.814,4.054,4.056
	c0-2.241,1.815-4.056,4.056-4.056C41.815,6.358,40,4.545,40,2.305z"/>
<linearGradient id="SVGID_3_" gradientUnits="userSpaceOnUse" x1="0" y1="31.3745" x2="14.3633" y2="31.3745">
	<stop  offset="0" style="stop-color:#F79D2A"/>
	<stop  offset="1" style="stop-color:#FFCD2E"/>
</linearGradient>
<path fill="url(#SVGID_3_)" d="M7.181,24.192c0,3.968-3.217,7.181-7.181,7.181c3.964,0,7.181,3.215,7.181,7.184
	c0-3.969,3.215-7.184,7.183-7.184C10.396,31.373,7.181,28.16,7.181,24.192z"/>
<linearGradient id="SVGID_4_" gradientUnits="userSpaceOnUse" x1="93.9321" y1="131.3442" x2="108.2954" y2="131.3442">
	<stop  offset="0" style="stop-color:#F79D2A"/>
	<stop  offset="1" style="stop-color:#FFCD2E"/>
</linearGradient>
<path fill="url(#SVGID_4_)" d="M101.114,124.163c0,3.969-3.219,7.182-7.182,7.182c3.963,0,7.182,3.215,7.182,7.182
	c0-3.967,3.215-7.182,7.182-7.182C104.329,131.344,101.114,128.131,101.114,124.163z"/>
<g>
	<linearGradient id="SVGID_5_" gradientUnits="userSpaceOnUse" x1="47.8809" y1="58.0981" x2="92.6479" y2="58.0981">
		<stop  offset="0" style="stop-color:#F79D2A"/>
		<stop  offset="1" style="stop-color:#FFCD2E"/>
	</linearGradient>
	<path fill="url(#SVGID_5_)" stroke="#515151" stroke-width="2" stroke-miterlimit="10" d="M92.45,82.727
		c0.445-3.342,0-5.535,0-5.535v-28.31c-0.676-0.204-1.375-0.345-2.115-0.345c-2.154,0-4.076,0.935-5.426,2.405V32.909
		c0-2.779-2.252-5.03-5.029-5.03c-1.512,0-2.852,0.681-3.773,1.735v-2.74c0-2.778-2.252-5.03-5.029-5.03
		c-2.777,0-5.028,2.252-5.028,5.03v3.196c-0.906-1.323-2.424-2.191-4.147-2.191c-2.779,0-5.03,2.251-5.03,5.03v6.663
		c-0.922-1.142-2.315-1.888-3.896-1.888c-2.779,0-5.029,2.252-5.029,5.03v34.477c-0.755,15.652,5.374,17.16,5.374,17.16h34.375
		c2.936-4.068,4.178-7.971,4.666-11.029h0.09V82.727z"/>
	<path fill="none" stroke="#515151" stroke-width="2" stroke-linecap="round" stroke-miterlimit="10" d="M92.588,83.323V48.882
		c-0.674-0.204-1.375-0.345-2.113-0.345c-4.088,0-7.396,3.312-7.396,7.396v12.994"/>
	<path fill="none" stroke="#515151" stroke-linecap="round" stroke-miterlimit="10" d="M67.488,94.352
		c-0.063-0.76-0.099-1.533-0.099-2.313c0-12.279,8.253-22.234,18.433-22.234"/>
	
		<line fill="none" stroke="#515151" stroke-width="2" stroke-linecap="round" stroke-miterlimit="10" x1="56.887" y1="38.094" x2="56.887" y2="60.13"/>
	
		<line fill="none" stroke="#515151" stroke-width="2" stroke-linecap="round" stroke-miterlimit="10" x1="66.145" y1="29.969" x2="66.145" y2="60.13"/>
	
		<line fill="none" stroke="#515151" stroke-width="2" stroke-linecap="round" stroke-miterlimit="10" x1="76.168" y1="29.073" x2="76.168" y2="60.13"/>
	
		<line fill="none" stroke="#515151" stroke-linecap="round" stroke-miterlimit="10" x1="80.083" y1="35.799" x2="76.168" y2="35.799"/>
	
		<line fill="none" stroke="#515151" stroke-linecap="round" stroke-miterlimit="10" x1="80.083" y1="47.869" x2="76.168" y2="47.869"/>
	
		<line fill="none" stroke="#515151" stroke-linecap="round" stroke-miterlimit="10" x1="70.057" y1="32.532" x2="66.145" y2="32.532"/>
	
		<line fill="none" stroke="#515151" stroke-linecap="round" stroke-miterlimit="10" x1="60.801" y1="37.685" x2="56.887" y2="37.685"/>
	
		<line fill="none" stroke="#515151" stroke-linecap="round" stroke-miterlimit="10" x1="60.801" y1="50.383" x2="56.887" y2="50.383"/>
	
		<line fill="none" stroke="#515151" stroke-linecap="round" stroke-miterlimit="10" x1="51.793" y1="47.869" x2="47.88" y2="47.869"/>
	
		<line fill="none" stroke="#515151" stroke-linecap="round" stroke-miterlimit="10" x1="51.793" y1="55.663" x2="47.88" y2="55.663"/>
	
		<line fill="none" stroke="#515151" stroke-linecap="round" stroke-miterlimit="10" x1="70.057" y1="46.329" x2="66.145" y2="46.329"/>
	<g>
		<g>
			<path fill="none" d="M81.204,59.16c-0.629,0.082-4.074,0.439-8.967,1.891c-2.45,0.718-5.284,1.77-8.242,3.195
				c-2.921,1.499-6.025,3.332-8.627,5.704c-2.697,2.279-4.768,4.994-6.267,7.561c-1.393,2.57-2.301,5.029-2.662,7.021
				c-0.562,2.07-0.505,3.609-0.593,4.74c-0.047,1.121-0.071,1.76-0.071,1.76l25.481-1.984c0,0,0.023-0.291,0.064-0.797
				c0.057-0.492-0.031-1.281,0.236-1.986c0.291-1.586,1.063-3.053,2.422-4.211c0.611-0.629,1.596-1.158,2.561-1.689
				c1.045-0.488,2.16-0.932,3.211-1.234c2.094-0.629,3.578-0.752,2.934-0.688L81.204,59.16z"/>
		</g>
		<g>
			<path fill="#FFFFFF" d="M72.793,70.151c0,0-0.313,0.119-0.865,0.328c-0.551,0.217-1.301,0.582-2.216,0.994
				c-1.769,0.904-4.111,2.213-5.957,3.92c-1.965,1.631-3.321,3.594-4.203,5.076c-0.466,0.736-0.642,1.396-0.86,1.84
				c-0.19,0.447-0.299,0.703-0.299,0.703l2.452,0.385c0,0,0.097-0.229,0.268-0.633c0.199-0.395,0.348-1,0.771-1.65
				c0.79-1.32,1.984-3.064,3.732-4.508c1.632-1.52,3.744-2.697,5.344-3.518c0.838-0.371,1.52-0.707,2.02-0.906
				c0.504-0.189,0.797-0.299,0.797-0.299L72.793,70.151z"/>
		</g>
		<path fill="#FFFFFF" d="M80.149,68.092l0.387,1.897c0,0-0.246,0.043-0.617,0.113c-0.371,0.078-0.861,0.188-1.357,0.293
			c-0.971,0.254-1.943,0.514-1.943,0.514l-0.73-1.816c0,0,1.055-0.283,2.111-0.555c0.533-0.115,1.068-0.232,1.471-0.319
			C79.877,68.144,80.149,68.092,80.149,68.092z"/>
		<path fill="#FFFFFF" d="M57.688,85.491l2.517,0.158c0,0-0.045,0.189-0.111,0.475s-0.175,0.666-0.167,1.053
			c-0.04,0.77-0.082,1.539-0.082,1.539l-2.548,0.104c0,0,0.047-0.83,0.092-1.662c-0.006-0.416,0.109-0.832,0.181-1.145
			C57.644,85.698,57.688,85.491,57.688,85.491z"/>
	</g>
	<g>
		<g>
			<path fill="none" d="M46.394,72.272c0.353,0.23,2.22,1.561,5.403,2.766c1.593,0.611,3.557,1.16,5.796,1.49
				c2.261,0.268,4.798,0.373,7.399-0.141c2.594-0.4,5.133-1.408,7.311-2.57c2.129-1.213,3.959-2.568,5.262-3.84
				c1.445-1.237,2.289-2.372,2.975-3.149c0.652-0.788,1.027-1.236,1.027-1.236l-13.442-10.31c0,0-0.174,0.2-0.482,0.545
				c-0.305,0.332-0.709,0.94-1.237,1.324c-1.038,1.013-2.245,1.717-3.558,1.925c-0.65,0.171-1.426,0.1-2.192,0.042
				c-0.782-0.133-1.572-0.325-2.251-0.591c-1.372-0.51-2.158-1.106-1.809-0.855L46.394,72.272z"/>
		</g>
		<g>
			<path fill="#FFFFFF" d="M56.684,68.212c0,0,0.221,0.061,0.604,0.163c0.389,0.098,0.959,0.178,1.632,0.304
				c1.369,0.165,3.243,0.298,5.101-0.084c1.873-0.27,3.641-1.063,4.905-1.727c0.644-0.315,1.103-0.717,1.46-0.93
				c0.343-0.238,0.541-0.372,0.541-0.372L69.96,64.16c0,0-0.178,0.119-0.489,0.332c-0.319,0.192-0.733,0.56-1.306,0.837
				c-1.13,0.587-2.694,1.296-4.357,1.532c-1.648,0.347-3.336,0.222-4.573,0.078c-0.616-0.118-1.134-0.19-1.489-0.277
				c-0.354-0.096-0.554-0.152-0.554-0.152L56.684,68.212z"/>
		</g>
		<path fill="#FFFFFF" d="M51.963,66.312l0.886-1.549c0,0,0.145,0.084,0.362,0.204c0.224,0.112,0.522,0.263,0.821,0.412
			c0.612,0.267,1.23,0.526,1.23,0.526l-0.674,1.646c0,0-0.67-0.279-1.335-0.573c-0.323-0.16-0.65-0.323-0.892-0.446
			C52.123,66.398,51.963,66.312,51.963,66.312z"/>
		<path fill="#FFFFFF" d="M72.67,64.103l-1.127-1.274c0,0,0.129-0.116,0.322-0.292c0.195-0.175,0.463-0.398,0.678-0.682
			c0.455-0.539,0.91-1.077,0.91-1.077l1.291,1.101c0,0-0.492,0.579-0.984,1.158c-0.232,0.303-0.523,0.551-0.738,0.742
			C72.811,63.974,72.67,64.103,72.67,64.103z"/>
	</g>
	<g>
		<g>
			<path fill="none" d="M75.958,56.919c0,0-1.557,0.781-3.895,1.952c-2.356,1.167-5.51,2.705-8.656,4.175
				c-3.14,1.468-6.294,2.869-8.506,3.736c-0.528,0.197-1.013,0.379-1.441,0.539c-0.354,0.116-0.663,0.217-0.917,0.3
				c-0.209,0.032-0.209,0.066-0.228,0.07l2.596,15.92c0,0,0.201-0.043,0.577-0.121c0.355-0.08,0.969-0.215,1.575-0.387
				c0.487-0.156,1.079-0.35,1.757-0.568c0.588-0.221,1.251-0.469,1.974-0.738c2.765-1.086,6.12-2.588,9.437-4.135
				c3.311-1.547,6.561-3.133,8.995-4.338c2.439-1.223,4.066-2.039,4.066-2.039L75.958,56.919z"/>
		</g>
		<g>
			<path fill="#FFFFFF" d="M73.395,66.313c0,0-3.439,1.693-6.91,3.313c-3.464,1.639-6.979,3.122-6.979,3.122l0.625,1.488
				c0,0,3.559-1.504,7.036-3.148c3.487-1.627,6.936-3.326,6.936-3.326L73.395,66.313z"/>
		</g>
		<polygon fill="#FFFFFF" points="78.206,63.908 78.932,65.35 76.18,66.724 75.463,65.279 		"/>
		<path fill="#FFFFFF" d="M57.399,73.588l0.585,1.504c0,0-0.729,0.273-1.46,0.547c-0.752,0.246-1.503,0.492-1.503,0.492
			l-0.451-1.549c0,0,0.707-0.232,1.413-0.465C56.691,73.854,57.399,73.588,57.399,73.588z"/>
	</g>
</g>
<g>
	<path fill="#FFFFFF" stroke="#FFFFFF" stroke-width="6" stroke-miterlimit="10" d="M40.578,86.956
		c-0.467,2.488-1.308,7.492-1.919,12.637c1.383-1.381,3.712-3.316,6.049-3.639c3.673-0.506,4.78,1.68,4.228,5.074
		c-0.463,2.828-2.397,9.473-0.083,8.984c1.324-0.268,3.202-2.992,4.026-5.656c0.213-0.625,2.126,0.301,1.933,0.754
		c-1.335,3.586-3.767,8.172-8.436,9.154c-4.216,0.879-5.224-1.492-5.233-4.041c0-2.17,0.785-6.658,0.933-7.443
		c0.226-1.137,0.028-1.961-1.124-1.674c-0.781,0.191-1.936,1.074-2.848,2.176c-0.546,4.371-1.031,8.266-1.377,11.629
		c-0.082,0.947-7.227,2.484-6.984,0.535c1.126-9.127,2.966-21.711,4.063-28.58C35.127,85.663,40.483,85.649,40.578,86.956z"/>
	<path fill="#FFFFFF" stroke="#FFFFFF" stroke-width="6" stroke-miterlimit="10" d="M69.32,100.221
		c-1.012,3.16-4.65,5.148-9.464,5.088c0.513,2.182,2.355,2.908,5.367,2.535c2.384-0.285,5.96-1.797,7.562-6.227
		c0.211-0.625,2.125,0.301,1.969,0.707c-2.441,6.373-6.16,9.012-11.256,9.67c-7.227,0.951-10.412-2.736-10.604-7.217
		c-0.256-5.875,3.879-10.441,9.941-11.189C68.273,92.924,70.62,96.684,69.32,100.221z M59.697,102.61
		c2.433-0.25,3.669-2.078,3.861-3.467c0.136-0.867-0.124-1.514-0.761-1.512C61.267,97.629,59.951,99.811,59.697,102.61z"/>
	<path fill="#FFFFFF" stroke="#FFFFFF" stroke-width="6" stroke-miterlimit="10" d="M88.977,86.717
		c-0.338,5.574-3.902,10.275-10.016,12.818c-0.373,4.09,0.736,6.275,3.586,5.969c1.924-0.223,4.867-1.393,6.592-6.18
		c0.182-0.535,2.01,0.402,1.891,0.76c-1.826,4.973-4.309,9.184-10.607,9.453c-6.508,0.301-8.039-5.271-7.473-13.514
		c0.432-6.141,2.357-12.23,5.977-14.982C83.161,77.823,89.401,79.899,88.977,86.717z M80.536,88.729
		c-0.438,2.059-1.061,4.951-1.328,7.029c1.877-1.193,3.4-4.338,4.004-6.76c0.613-2.637,0.563-5.18-0.48-5.035
		C81.854,84.083,81.122,86.182,80.536,88.729z"/>
	<path fill="#FFFFFF" stroke="#FFFFFF" stroke-width="6" stroke-miterlimit="10" d="M105.252,84.479
		c-0.338,5.574-3.902,10.273-10.016,12.816c-0.373,4.09,0.736,6.277,3.586,5.971c1.924-0.223,4.867-1.395,6.592-6.18
		c0.182-0.535,2.01,0.402,1.891,0.76c-1.826,4.971-4.309,9.184-10.607,9.453c-6.508,0.301-8.039-5.273-7.473-13.516
		c0.432-6.141,2.357-12.229,5.977-14.98C99.436,75.583,105.676,77.661,105.252,84.479z M96.811,86.489
		c-0.438,2.059-1.061,4.953-1.328,7.031c1.877-1.195,3.4-4.338,4.004-6.76c0.613-2.637,0.563-5.182-0.48-5.037
		C98.129,81.844,97.399,83.944,96.811,86.489z"/>
	<path fill="#FFFFFF" stroke="#FFFFFF" stroke-width="6" stroke-miterlimit="10" d="M122.52,99.03
		c1.996-0.021,4.143-1.719,5.184-4.967c0.213-0.625,2.119,0.26,1.934,0.754c-2.152,5.994-5.891,6.637-8.9,6.709
		c-1.852,1.998-4.365,3.195-7.162,3.58c-4.924,0.678-8.893-1.285-8.209-8.354c0.588-6.246,4.938-9.865,10.078-10.529
		C123.258,85.233,125.461,92.286,122.52,99.03z M112.278,95.672c-0.328,2.555-0.691,5.795,1.73,5.461
		c0.541-0.074,1.049-0.398,1.408-0.875c-0.84-1.158-0.162-3.037,1.252-3.273c0.656-3.58,0.471-7.082-1.609-6.754
		C113.561,90.479,112.674,92.686,112.278,95.672z"/>
</g>
<path fill="none" stroke="#434347" stroke-width="2" stroke-miterlimit="10" d="M127.704,94.063
	c-1.041,3.248-3.188,4.945-5.184,4.967c2.941-6.744,0.738-13.797-7.076-12.807c-5.141,0.664-9.49,4.283-10.078,10.529
	c-0.018,0.186-0.02,0.355-0.031,0.533c-1.732,4.613-4.615,5.762-6.512,5.98c-2.85,0.307-3.959-1.881-3.586-5.971
	c6.113-2.543,9.678-7.242,10.016-12.816c0.424-6.818-5.816-8.896-10.051-5.676c-3.619,2.752-5.545,8.84-5.977,14.98
	c-0.137,1.99-0.148,3.82,0.002,5.455c-0.033,0.025-0.074,0.043-0.088,0.086c-1.725,4.787-4.668,5.957-6.592,6.18
	c-2.85,0.307-3.959-1.879-3.586-5.969c6.113-2.543,9.678-7.244,10.016-12.818c0.424-6.818-5.816-8.895-10.051-5.676
	c-3.619,2.752-5.545,8.842-5.977,14.982c-0.137,1.979-0.146,3.799,0,5.426c-0.076,0.033-0.137,0.086-0.164,0.168
	c-1.602,4.43-5.178,5.941-7.562,6.227c-3.012,0.373-4.854-0.354-5.367-2.535c4.813,0.061,8.452-1.928,9.464-5.088
	c1.299-3.537-1.047-7.297-6.484-6.633c-5.908,0.729-9.974,5.088-9.94,10.748c-0.003,0.008-0.014,0.01-0.017,0.02
	c-0.824,2.664-2.702,5.389-4.026,5.656c-2.314,0.488-0.38-6.156,0.083-8.984c0.553-3.395-0.555-5.58-4.228-5.074
	c-2.337,0.322-4.666,2.258-6.049,3.639c0.611-5.145,1.452-10.148,1.919-12.637c-0.095-1.307-5.451-1.293-6.773-0.09
	c-1.097,6.869-2.937,19.453-4.063,28.58c-0.242,1.949,6.902,0.412,6.984-0.535c0.346-3.363,0.831-7.258,1.377-11.629
	c0.912-1.102,2.066-1.984,2.848-2.176c1.152-0.287,1.35,0.537,1.124,1.674c-0.147,0.785-0.933,5.273-0.933,7.443
	c0.01,2.549,1.018,4.92,5.233,4.041c3.513-0.738,5.759-3.518,7.224-6.375c1.305,2.904,4.453,4.822,9.898,4.105
	c4.354-0.563,7.7-2.58,10.104-7.125c1.004,3.078,3.094,4.84,6.82,4.668c5.125-0.221,7.721-3.047,9.496-6.771
	c1.02,3,3.105,4.703,6.779,4.533c4.723-0.201,7.301-2.621,9.064-5.914c1.133,3.289,4.213,4.215,7.813,3.721
	c2.797-0.385,5.311-1.582,7.162-3.58c3.01-0.072,6.748-0.715,8.9-6.709C129.823,94.323,127.917,93.438,127.704,94.063z
	 M96.811,86.489c0.588-2.545,1.318-4.645,2.195-4.766c1.043-0.145,1.094,2.4,0.48,5.037c-0.604,2.422-2.127,5.564-4.004,6.76
	C95.75,91.442,96.374,88.547,96.811,86.489z M80.536,88.729c0.586-2.547,1.318-4.646,2.195-4.766
	c1.043-0.145,1.094,2.398,0.48,5.035c-0.604,2.422-2.127,5.566-4.004,6.76C79.475,93.68,80.098,90.788,80.536,88.729z
	 M62.798,97.631c0.637-0.002,0.896,0.645,0.761,1.512c-0.192,1.389-1.429,3.217-3.861,3.467
	C59.951,99.811,61.267,97.629,62.798,97.631z M116.668,96.985c-1.414,0.236-2.092,2.115-1.252,3.273
	c-0.359,0.477-0.867,0.801-1.408,0.875c-2.422,0.334-2.059-2.906-1.73-5.461c0.396-2.986,1.283-5.193,2.781-5.441
	C117.139,89.903,117.325,93.405,116.668,96.985z"/>
<linearGradient id="SVGID_6_" gradientUnits="userSpaceOnUse" x1="94.7114" y1="31.4126" x2="107.5171" y2="31.4126">
	<stop  offset="0" style="stop-color:#F79D2A"/>
	<stop  offset="1" style="stop-color:#FFCD2E"/>
</linearGradient>
<path opacity="0.5" fill="none" stroke="url(#SVGID_6_)" stroke-width="4" stroke-linecap="round" stroke-miterlimit="10" d="
	M96.711,19.586c0,0,12.188,5.536,7.887,23.653"/>
<linearGradient id="SVGID_7_" gradientUnits="userSpaceOnUse" x1="106.3384" y1="25.7578" x2="116.6577" y2="25.7578">
	<stop  offset="0" style="stop-color:#F79D2A"/>
	<stop  offset="1" style="stop-color:#FFCD2E"/>
</linearGradient>
<path opacity="0.5" fill="none" stroke="url(#SVGID_7_)" stroke-width="4" stroke-linecap="round" stroke-miterlimit="10" d="
	M108.338,17.271c0,0,8.746,3.974,5.66,16.975"/>
<linearGradient id="SVGID_8_" gradientUnits="userSpaceOnUse" x1="663.9712" y1="313.562" x2="676.7778" y2="313.562" gradientTransform="matrix(-0.999 -0.044 0.044 -0.999 681.6491 406.5872)">
	<stop  offset="0" style="stop-color:#F79D2A"/>
	<stop  offset="1" style="stop-color:#FFCD2E"/>
</linearGradient>
<path opacity="0.5" fill="none" stroke="url(#SVGID_8_)" stroke-width="4" stroke-linecap="round" stroke-miterlimit="10" d="
	M29.621,75.852c0,0-11.934-6.068-6.838-23.979"/>
<linearGradient id="SVGID_9_" gradientUnits="userSpaceOnUse" x1="675.5991" y1="307.9067" x2="685.9175" y2="307.9067" gradientTransform="matrix(-0.999 -0.044 0.044 -0.999 681.6491 406.5872)">
	<stop  offset="0" style="stop-color:#F79D2A"/>
	<stop  offset="1" style="stop-color:#FFCD2E"/>
</linearGradient>
<path opacity="0.5" fill="none" stroke="url(#SVGID_9_)" stroke-width="4" stroke-linecap="round" stroke-miterlimit="10" d="
	M17.903,77.653c0,0-8.562-4.354-4.907-17.207"/>
</svg>
