<?xml version="1.0" encoding="utf-8"?>
<!-- Generator: Adobe Illustrator 16.0.0, SVG Export Plug-In . SVG Version: 6.00 Build 0)  -->
<!DOCTYPE svg PUBLIC "-//W3C//DTD SVG 1.1//EN" "http://www.w3.org/Graphics/SVG/1.1/DTD/svg11.dtd">
<svg version="1.1" id="Layer_1" xmlns="http://www.w3.org/2000/svg" xmlns:xlink="http://www.w3.org/1999/xlink" x="0px" y="0px"
	 width="40px" height="40px" viewBox="0 0 30 30" enable-background="new 0 0 30 30" xml:space="preserve">
<g>
	<path fill="#3F3F3F" d="M22.5,30c-1.719,0-3.301-0.586-4.57-1.563c-0.938,0.195-1.934,0.313-2.93,0.313
		C7.402,28.75,1.25,22.598,1.25,15c0-0.996,0.117-1.992,0.313-2.93C0.586,10.801,0,9.219,0,7.5C0,3.359,3.359,0,7.5,0
		c1.719,0,3.301,0.586,4.57,1.563C13.008,1.367,14.004,1.25,15,1.25c7.598,0,13.75,6.152,13.75,13.75
		c0,0.996-0.117,1.993-0.313,2.93C29.414,19.2,30,20.782,30,22.5C30,26.641,26.641,30,22.5,30z M16.836,13.066l-2.031-0.469
		c-1.484-0.352-2.598-0.605-2.598-1.738c0-1.035,1.094-1.504,2.813-1.504c3.066,0,3.125,2.246,5.02,2.246
		c1.27,0,2.031-0.996,2.031-2.129c0-2.246-3.73-3.711-7.422-3.711c-3.379,0-7.305,1.465-7.305,5.43c0,3.281,2.188,4.453,5.039,5.137
		l2.852,0.703c1.738,0.43,2.813,0.625,2.813,1.875c0,0.996-1.113,1.758-2.832,1.758c-3.613,0-3.809-3.008-5.898-3.008
		c-1.367,0-1.973,0.977-1.973,2.051c0,2.402,3.672,4.355,8.066,4.355c3.672,0,7.5-1.836,7.5-5.801
		C22.91,14.863,19.609,13.691,16.836,13.066z"/>
</g>
</svg>
