<?xml version="1.0" encoding="utf-8"?>
<!-- Generator: Adobe Illustrator 16.0.0, SVG Export Plug-In . SVG Version: 6.00 Build 0)  -->
<!DOCTYPE svg PUBLIC "-//W3C//DTD SVG 1.1//EN" "http://www.w3.org/Graphics/SVG/1.1/DTD/svg11.dtd">
<svg version="1.1" id="Layer_1" xmlns="http://www.w3.org/2000/svg" xmlns:xlink="http://www.w3.org/1999/xlink" x="0px" y="0px"
	 width="50px" height="50px" viewBox="0 0 37.513 21.403" enable-background="new 0 0 37.513 21.403" xml:space="preserve">
<g>
	<path fill="#ffffff" d="M34.53,7.29c-3.789,5.039-4.199,4.57-1.074,7.48c3.008,2.793,3.633,4.141,3.73,4.316
		c0,0,1.25,2.188-1.387,2.207l-5,0.078c-1.074,0.215-2.5-0.762-2.5-0.762c-1.875-1.289-3.633-4.629-5-4.199
		c0,0-1.406,0.449-1.367,3.457c0.02,0.645-0.293,0.996-0.293,0.996s-0.352,0.371-1.035,0.43h-2.246
		c-4.941,0.313-9.297-4.238-9.297-4.238S4.296,12.134,0.116,2.31c-0.273-0.645,0.02-0.957,0.02-0.957s0.293-0.371,1.113-0.371
		l5.352-0.039C7.108,1.021,7.46,1.294,7.46,1.294s0.313,0.215,0.469,0.625c0.879,2.188,2.012,4.18,2.012,4.18
		c1.953,4.023,3.281,4.707,4.043,4.297c0,0,0.996-0.605,0.781-5.469c-0.078-1.758-0.566-2.559-0.566-2.559
		c-0.449-0.605-1.289-0.781-1.66-0.84c-0.293-0.039,0.195-0.742,0.84-1.055c0.957-0.469,2.656-0.488,4.668-0.469
		c1.582,0.02,2.031,0.117,2.637,0.254c1.855,0.449,1.23,2.168,1.23,6.309c0,1.328-0.254,3.184,0.703,3.789
		c0.41,0.273,1.426,0.039,3.926-4.219c0,0,1.172-2.031,2.09-4.395c0.156-0.43,0.488-0.605,0.488-0.605s0.313-0.176,0.742-0.117
		l5.625-0.039c1.699-0.215,1.973,0.566,1.973,0.566C37.753,2.349,36.835,4.224,34.53,7.29z"/>
</g>
</svg>
